HIERARCHY
ROOT Hips
{
  OFFSET 0.382225 96.6805 0.598322
  CHANNELS 6 Xposition Yposition Zposition Zrotation Xrotation Yrotation
  JOINT Spine
  {
    OFFSET 10.8089 -0.851416 0
    CHANNELS 3 Zrotation Xrotation Yrotation
    JOINT Spine1
    {
      OFFSET 18.8753 3.80116 0
      CHANNELS 3 Zrotation Xrotation Yrotation
      JOINT Spine2
      {
        OFFSET 13.4073 0.420477 0
        CHANNELS 3 Zrotation Xrotation Yrotation
        JOINT LeftShoulder
        {
          OFFSET 11.8837 -2.73209 -3.78198
          CHANNELS 3 Zrotation Xrotation Yrotation
          JOINT LeftArm
          {
            OFFSET 15.7849 0 -2.35849e-005
            CHANNELS 3 Zrotation Xrotation Yrotation
            JOINT LeftForeArm
            {
              OFFSET 30.3399 0 0
              CHANNELS 3 Zrotation Xrotation Yrotation
              JOINT LeftHand
              {
                OFFSET 26.9751 0 2.45913e-005
                CHANNELS 3 Zrotation Xrotation Yrotation
                End Site
                {
                  OFFSET 8 0 0
                }
              }
            }
          }
        }
        JOINT RightShoulder
        {
          OFFSET 11.8838 -2.7321 3.782
          CHANNELS 3 Zrotation Xrotation Yrotation
          JOINT RightArm
          {
            OFFSET -15.7848 0 -1.07056e-005
            CHANNELS 3 Zrotation Xrotation Yrotation
            JOINT RightForeArm
            {
              OFFSET -30.34 1.02096e-005 -2.53607e-005
              CHANNELS 3 Zrotation Xrotation Yrotation
              JOINT RightHand
              {
                OFFSET -26.9752 2.07668e-005 0
                CHANNELS 3 Zrotation Xrotation Yrotation
                End Site
                {
                  OFFSET -8 0 0
                }
              }
            }
          }
        }
        JOINT Neck
        {
          OFFSET 16.5588 -0.355318 0
          CHANNELS 3 Zrotation Xrotation Yrotation
          JOINT Head
          {
            OFFSET 9.28361 0.364157 0
            CHANNELS 3 Zrotation Xrotation Yrotation
            End Site
            {
              OFFSET 0 0 0
            }
          }
        }
      }
    }
  }
  JOINT LeftUpLeg
  {
    OFFSET -1.44883 -0.531424 -9.00581
    CHANNELS 3 Zrotation Xrotation Yrotation
    JOINT LeftLeg
    {
      OFFSET -42.572 0.0788889 -0.011964
      CHANNELS 3 Zrotation Xrotation Yrotation
      JOINT LeftFoot
      {
        OFFSET -40.1967 0 0
        CHANNELS 3 Zrotation Xrotation Yrotation
				JOINT LeftToe
        {
          OFFSET -10.4538 -16.5779 0.0801563
          CHANNELS 3 Zrotation Xrotation Yrotation
          End Site
          {
            OFFSET -1.0 -1.0 0.0
          }
        }
      }
    }
  }
  JOINT RightUpLeg
  {
    OFFSET -1.44865 -0.531427 9.0058
    CHANNELS 3 Zrotation Xrotation Yrotation
    JOINT RightLeg
    {
      OFFSET 42.5723 -3.24776e-005 0
      CHANNELS 3 Zrotation Xrotation Yrotation
      JOINT RightFoot
      {
        OFFSET 40.1968 0 -1.14003e-005
        CHANNELS 3 Zrotation Xrotation Yrotation
				JOINT RightToe
        {
          OFFSET 10.4538 16.5778 -0.0801573
          CHANNELS 3 Zrotation Xrotation Yrotation
          End Site
          {
            OFFSET -1.0 -1.0 0.0
          }
        }
      }
    }
  }
}
MOTION
Frames:	13
Frame Time:	0.0333333
-171.537 96.516 134.257 -17.8627 -87.3631 -108.203 -9.53808 -1.38464 1.14995 18.9446 -0.257976 -0.459824 2.7794 1.93418e-006 1.65929e-005 -1.29487 16.8785 76.3734 -5.85731 -19.7067 2.44102 -17.7055 -13.4804 -0.770548 -58.1812 -70.2566 -63.2789 -177.541 11.0901 76.7205 8.89371 -38.356 13.3402 -24.3291 -8.11215 -1.43781 -44.7163 -75.0871 -41.4006 -23.508 4.63459e-006 -5.90926e-006 13.5194 -12.2182 10.3162 -1.61967 31.5291 3.2361 -0.113501 -5.81536 2.63974 2.79162 -14.2925 -0.442442 -90 0 0 -179.796 23.2999 2.31967 -1.36755 -5.87472 2.8333 2.33174 -13.1637 -2.75494 -90 0 0
-171.582 96.5158 134.323 -15.4717 -87.3807 -105.826 -9.48638 -1.49999 1.16709 18.8894 -0.254843 -0.454743 2.7794 1.93418e-006 1.65929e-005 -1.26256 16.9596 76.2643 -5.97465 -19.7655 2.41171 -17.5605 -13.5036 -0.703597 -57.9591 -70.2904 -63.0598 -177.569 11.1332 76.8124 9.00937 -38.5229 13.4685 -24.4808 -8.12049 -1.44895 -44.4747 -75.0236 -41.1314 -23.508 4.63459e-006 -5.90926e-006 13.526 -12.2273 10.2578 -1.63601 31.4743 3.22631 -0.11048 -5.81687 2.64004 2.79401 -14.3144 -0.441371 -90 0 0 -179.829 23.3897 2.346 -1.40602 -5.87312 2.82711 2.34263 -13.1853 -2.95034 -90 0 0
-171.618 96.5118 134.393 -13.0723 -87.3579 -103.451 -9.35044 -1.58424 1.17829 18.849 -0.252679 -0.452907 2.7794 1.93418e-006 1.65929e-005 -1.2497 16.9917 76.2232 -6.13173 -19.762 2.34389 -17.3919 -13.5304 -0.625724 -57.8405 -70.306 -62.9267 -177.594 11.1548 76.8959 9.09058 -38.5381 13.5361 -24.6112 -8.12765 -1.45851 -44.7969 -75.0716 -41.4574 -23.508 4.63459e-006 -5.90926e-006 13.4286 -12.1911 10.1825 -1.56135 31.4761 3.20093 -0.230763 -5.81722 2.62126 2.88065 -14.3989 -0.39681 -90 0 0 -179.846 23.4518 2.3504 -1.39098 -5.87238 2.82552 2.42782 -13.1192 -2.91 -90 0 0
-171.645 96.5084 134.46 -10.554 -87.373 -100.948 -9.29067 -1.64388 1.16593 18.8476 -0.250903 -0.450903 2.7794 1.93418e-006 1.65929e-005 -1.26731 16.94 76.279 -6.1627 -19.7593 2.31042 -17.4025 -13.5288 -0.630664 -57.5572 -70.399 -62.6608 -177.609 11.1835 76.9471 9.14213 -38.5695 13.5771 -24.6428 -8.13073 -1.46079 -44.4805 -74.9963 -41.1269 -23.508 4.63459e-006 -5.90926e-006 13.4102 -12.1791 10.1442 -1.6251 31.1482 3.20443 -0.10945 -5.81692 2.642 2.84075 -14.2182 -0.394912 -90 0 0 -179.907 23.5068 2.35896 -1.3597 -5.87182 2.82586 2.49445 -13.0737 -2.88584 -90 0 0
-171.672 96.5027 134.524 -6.96763 -87.4309 -97.3872 -9.24892 -1.72636 1.15366 18.7851 -0.248931 -0.44515 2.7794 1.93418e-006 1.65929e-005 -1.28272 16.952 76.3563 -6.23274 -19.7409 2.37387 -17.5978 -13.4977 -0.72081 -57.4819 -70.3178 -62.5761 -177.616 11.2619 76.9624 9.19105 -38.559 13.6323 -24.6717 -8.13308 -1.4619 -44.4923 -75.0852 -41.1113 -23.508 4.63459e-006 -5.90926e-006 13.4554 -12.2661 10.1801 -1.61903 30.9656 3.18731 -0.228914 -5.81646 2.62561 2.90655 -14.183 -0.395152 -90 0 0 179.997 23.601 2.35625 -1.35452 -5.87143 2.82724 2.5656 -13.0326 -2.95158 -90 0 0
-171.709 96.4953 134.585 -2.29008 -87.5318 -92.7546 -9.27079 -1.86559 1.17926 18.7397 -0.246374 -0.440967 2.7794 1.93418e-006 1.65929e-005 -1.30068 16.9449 76.4425 -6.28048 -19.6549 2.43077 -17.7993 -13.4652 -0.813824 -57.4766 -70.223 -62.5357 -177.63 11.3219 77.0027 9.23506 -38.5314 13.7054 -24.7055 -8.13477 -1.46278 -44.5258 -75.1008 -41.1967 -23.508 4.63459e-006 -5.90926e-006 13.4458 -12.3751 10.1922 -1.70497 30.7755 3.18973 -0.257271 -5.81576 2.62273 2.93044 -14.2248 -0.362532 -90 0 0 179.889 23.7022 2.32888 -1.40519 -5.87122 2.82877 2.72118 -12.9056 -2.89747 -90 0 0
-171.722 96.487 134.638 0.345364 -87.5782 -90.1317 -9.21908 -1.88637 1.1462 18.6683 -0.242617 -0.434387 2.7794 1.93418e-006 1.65929e-005 -1.32262 16.9672 76.5566 -6.40968 -19.5904 2.50707 -17.8498 -13.4571 -0.837075 -57.5572 -70.2616 -62.5123 -177.621 11.3619 76.9693 9.31145 -38.4863 13.8289 -24.7383 -8.13586 -1.46344 -44.5877 -75.1316 -41.2676 -23.508 4.63459e-006 -5.90926e-006 13.3926 -12.4533 10.263 -1.8506 31.0085 3.2207 -0.168692 -5.81495 2.63584 2.88626 -14.5448 -0.303267 -90 0 0 179.798 23.7497 2.33536 -1.40405 -5.87115 2.82955 2.76562 -12.8211 -2.94964 -90 0 0
-171.736 96.4821 134.675 1.95252 -87.6388 -88.5402 -9.20826 -1.91829 1.12391 18.615 -0.239333 -0.42948 2.7794 1.93418e-006 1.65929e-005 -1.33368 16.9781 76.6142 -6.45824 -19.515 2.60992 -17.8047 -13.4644 -0.816291 -57.1034 -70.3825 -62.0278 -177.622 11.3592 76.974 9.31023 -38.4806 13.9029 -24.7144 -8.13641 -1.46393 -44.2141 -75.1546 -40.8406 -23.508 4.63459e-006 -5.90926e-006 13.331 -12.3811 10.3114 -1.93593 31.0126 3.22463 -0.176514 -5.8143 2.63534 2.90169 -14.5898 -0.268267 -90 0 0 179.706 23.793 2.32822 -1.39696 -5.87124 2.82927 2.79602 -12.82 -2.95451 -90 0 0
-171.764 96.4827 134.695 3.5641 -87.6975 -86.9392 -9.20486 -1.97821 1.1124 18.5739 -0.237408 -0.425993 2.7794 1.93418e-006 1.65929e-005 -1.3379 17.0025 76.6441 -6.51495 -19.481 2.67152 -17.6625 -13.4873 -0.75073 -56.335 -70.4454 -61.3171 -177.633 11.3859 77.0064 9.21036 -38.4841 13.9324 -24.704 -8.13648 -1.46425 -43.5666 -75.1701 -40.1827 -23.508 4.63459e-006 -5.90926e-006 13.259 -12.3388 10.3701 -2.04161 30.7303 3.22716 -0.070158 -5.8136 2.65204 2.86294 -14.3837 -0.274153 -90 0 0 179.597 23.8191 2.34098 -1.35612 -5.87144 2.83035 2.78609 -12.816 -2.96329 -90 0 0
-171.813 96.481 134.693 4.95153 -87.7076 -85.5573 -9.20386 -2.0389 1.13296 18.5515 -0.235811 -0.423621 2.7794 1.93418e-006 1.65929e-005 -1.33408 17.0118 76.6295 -6.57076 -19.4308 2.69278 -17.4678 -13.5184 -0.660864 -56.1875 -70.5304 -61.2837 -177.648 11.4063 77.0539 9.12801 -38.4582 13.9569 -24.7359 -8.13614 -1.46442 -43.448 -75.1461 -40.0726 -23.508 4.63459e-006 -5.90926e-006 13.2436 -12.2396 10.3506 -1.96248 30.8992 3.15593 -0.208274 -5.81297 2.6326 2.92595 -14.6178 -0.175499 -90 0 0 179.598 23.8531 2.36931 -1.39345 -5.87174 2.83204 2.81628 -12.7381 -2.92596 -90 0 0
-171.832 96.4803 134.702 4.0061 -87.7557 -86.5161 -9.20657 -2.01732 1.14547 18.4852 -0.234537 -0.421852 2.7794 1.93418e-006 1.65929e-005 -1.32674 17.0597 76.6221 -6.5578 -19.4669 2.75129 -17.3869 -13.5312 -0.623367 -56.05 -70.5992 -61.1257 -177.647 11.4139 77.051 9.07231 -38.3991 13.973 -24.7456 -8.13545 -1.46449 -43.4213 -75.1375 -39.9752 -23.508 4.63459e-006 -5.90926e-006 13.3629 -12.1401 10.3923 -2.10047 30.8928 3.19852 -0.070238 -5.81208 2.65288 2.86113 -14.5377 -0.187996 -90 0 0 179.521 23.8045 2.37153 -1.34105 -5.87214 2.83412 2.80925 -12.7313 -2.91098 -90 0 0
-171.88 96.4807 134.679 3.98643 -87.7614 -86.54 -9.20798 -2.019 1.18362 18.4601 -0.23358 -0.420028 2.7794 1.93418e-006 1.65929e-005 -1.32153 17.031 76.5836 -6.50201 -19.4557 2.75784 -17.3038 -13.5444 -0.584974 -56.1546 -70.5622 -61.1997 -177.649 11.4063 77.0585 9.06787 -38.3717 13.9751 -24.6708 -8.13447 -1.46445 -43.3489 -75.1489 -39.9039 -23.508 4.63459e-006 -5.90926e-006 13.4093 -12.0644 10.3577 -2.03577 30.8402 3.13987 -0.112912 -5.81126 2.64846 2.8667 -14.5331 -0.139975 -90 0 0 179.522 23.8009 2.39377 -1.36504 -5.87262 2.83637 2.7978 -12.7912 -3.00281 -90 0 0
-171.915 96.4819 134.654 2.87518 -87.7589 -87.6748 -9.20756 -1.98169 1.25018 18.4453 -0.232935 -0.418314 2.7794 1.93418e-006 1.65929e-005 -1.30927 17.0723 76.5477 -6.52838 -19.4768 2.73309 -17.2994 -13.5451 -0.582997 -55.8875 -70.5633 -60.9654 -177.638 11.3844 77.0213 9.12966 -38.2993 14.0148 -24.6161 -8.13325 -1.46435 -43.7926 -75.2126 -40.4539 -23.508 4.63459e-006 -5.90926e-006 13.4424 -12.0149 10.3168 -1.95861 30.6426 3.12779 -0.198618 -5.81044 2.64044 2.8836 -14.2715 -0.215295 -90 0 0 179.515 23.8193 2.4022 -1.30229 -5.87317 2.83858 2.77823 -12.8285 -2.97083 -90 0 0
